
        <svg xmlns="http://www.w3.org/2000/svg" xmlns:xlink="http://www.w3.org/1999/xlink" version="1.1" width="3139.6363636363635" 
        height="3139.6363636363635" viewBox="0 0 3139.6363636363635 3139.6363636363635">
			<rect fill="#ffffff" width="3139.6363636363635" height="3139.6363636363635"/>
			<g transform="scale(6.9818181818181815) translate(10, 10)">
				<defs id="SvgjsDefs1382"></defs><g id="SvgjsG1383" featureKey="rootContainer" transform="matrix(4.12764175118426,0,0,4.12764175118426,0,0)" fill="#005792"><path xmlns="http://www.w3.org/2000/svg" d="M0 0v104.1h104.1V0zm101.7 101.7H2.4V2.4h99.3z"></path></g><g id="SvgjsG1384" featureKey="symbolFeature-0" transform="matrix(0.98488050574321,0,0,0.98488050574321,166.1497766671509,67.1029369474349)" fill="#005792"><path xmlns="http://www.w3.org/2000/svg" fill-rule="evenodd" clip-rule="evenodd" d="M89.979,45.533c-0.013,0-0.024-0.001-0.036-0.001    c-0.041-0.498-0.036-1.004-0.133-1.49c-0.344-1.716-0.601-3.463-1.117-5.128c-0.783-2.523-1.478-5.092-2.906-7.373    c-0.944-1.509-1.864-3.018-3.247-4.191c-0.484-0.413-0.992-0.905-1.229-1.469c-0.242-0.574-0.637-0.92-1.034-1.325    c-0.846-0.858-1.569-1.83-2.561-2.552c-0.638-0.467-1.174-1.07-1.79-1.568c-0.837-0.678-1.705-1.318-2.566-1.967    c-0.22-0.167-0.529-0.253-0.683-0.46c-0.589-0.796-1.424-1.232-2.273-1.656c-1.429-0.714-2.826-1.496-4.021-2.555    c-1.17-1.039-2.592-1.503-4.006-2.001c-0.657-0.232-1.363-0.317-2.039-0.505c-1.643-0.457-3.258-1.044-5.012-0.842    c-0.144,0.017-0.297-0.073-0.447-0.098c-0.673-0.111-1.348-0.303-2.022-0.303c-1.237,0.001-2.475,0.105-3.711,0.188    c-0.619,0.042-1.308-0.027-1.84,0.222c-1.891,0.885-3.958,1.099-5.914,1.723c-0.976,0.311-1.951,0.647-2.879,1.077    c-1.07,0.495-2.021,1.232-3.168,1.598c-0.405,0.129-0.765,0.401-1.142,0.612c-1.092,0.612-2.143,1.31-3.28,1.814    c-1.04,0.46-1.799,1.201-2.508,2.014c-0.806,0.925-1.691,1.75-2.657,2.505c-0.809,0.635-1.571,1.33-2.354,2    c-0.686,0.585-1.292,1.326-2.074,1.721c-1.105,0.559-1.69,1.624-2.642,2.324c-0.702,0.517-1.194,1.322-1.77,2.009    c-0.529,0.631-1.081,1.244-1.331,2.065c-0.132,0.441-0.289,0.907-0.562,1.267c-1.002,1.321-1.559,2.817-1.9,4.415    c-0.024,0.117-0.05,0.267-0.131,0.337c-0.366,0.325-0.387,0.755-0.453,1.193c-0.097,0.634-0.253,1.257-0.396,1.882    c-0.326,1.429-0.678,2.851-0.983,4.284c-0.142,0.665-0.101,1.382-0.315,2.017c-0.544,1.609-0.917,3.231-0.834,4.94    c0.055,1.09,0.084,2.181,0.135,3.272c0.029,0.651,0.077,1.304,0.117,1.954c0.044,0.702-0.087,1.476,0.166,2.091    c0.56,1.367,0.334,2.898,1.005,4.222c0.051,0.099-0.01,0.248,0.013,0.368c0.142,0.758,0.168,1.568,0.472,2.255    c0.372,0.846,0.491,1.816,1.164,2.532c0.102,0.108,0.038,0.36,0.075,0.541c0.062,0.299,0.131,0.599,0.225,0.889    c0.065,0.205,0.271,0.405,0.253,0.591c-0.061,0.591,0.317,0.981,0.659,1.292c0.804,0.737,1.154,1.746,1.734,2.613    c0.446,0.666,0.875,1.344,1.278,2.037c0.372,0.64,0.714,1.3,1.044,1.963c0.363,0.729,0.671,1.488,1.062,2.202    c0.138,0.253,0.438,0.427,0.687,0.605c0.201,0.146,0.459,0.217,0.649,0.373c0.995,0.803,1.975,1.623,2.964,2.433    c0.163,0.135,0.338,0.28,0.53,0.352c1.049,0.381,2.104,0.75,3.162,1.102c0.319,0.106,0.697,0.076,0.986,0.227    c1.844,0.961,3.741,1.75,5.81,2.081c0.92,0.148,1.823,0.439,2.745,0.505c1.463,0.105,2.916,0.206,4.34,0.594    c1.767,0.48,3.574,0.688,5.402,0.566c1.173-0.08,2.34-0.244,3.509-0.378c0.667-0.077,1.351-0.097,1.993-0.268    c1.138-0.306,2.25-0.708,3.373-1.068c0.471-0.152,0.935-0.338,1.448-0.159c0.104,0.036,0.25-0.003,0.366-0.042    c1.324-0.437,2.639-0.896,3.763-1.767c0.169-0.13,0.377-0.233,0.585-0.288c1.615-0.439,2.979-1.367,4.35-2.271    c1.112-0.734,2.166-1.556,3.257-2.32c1.141-0.799,2.294-1.577,3.44-2.365c0.052-0.035,0.098-0.077,0.146-0.118    c0.553-0.478,1.049-1.059,1.673-1.413c1.129-0.642,1.871-1.575,2.494-2.67c0.241-0.423,0.621-0.771,0.954-1.138    c0.909-1.008,1.88-1.967,2.725-3.024c0.612-0.767,1.42-1.285,2.087-1.969c0.343-0.351,0.782-0.678,0.958-1.106    c0.479-1.173,0.913-2.376,1.23-3.602c0.251-0.973,0.746-1.768,1.364-2.511c0.678-0.813,1.405-1.58,1.61-2.685    c0.061-0.325,0.252-0.636,0.419-0.933c0.496-0.88,0.879-1.801,0.987-2.812c0.057-0.521,0.018-1.051,0.082-1.569    c0.138-1.116,0.396-2.225,0.455-3.345C90.039,48.579,89.979,47.055,89.979,45.533z M73.361,24.3    c0.307,0.263,0.635,0.505,0.917,0.795c0.261,0.268,0.119,0.545-0.145,0.704c-0.278,0.168-0.475-0.012-0.571-0.278    c-0.132-0.365-0.241-0.736-0.359-1.105C73.256,24.377,73.309,24.339,73.361,24.3z M67.723,25.116    c0.181-0.547,0.398-1.083,0.632-1.699c0.833,0.63,0.78,1.721-0.039,2.136c-0.129,0.065-0.358,0.033-0.491-0.042    C67.738,25.462,67.685,25.23,67.723,25.116z M62.825,22.873c0.204,0.059,0.42,0.101,0.617,0.186    c0.5,0.218,0.657,0.526,0.479,1.046c-0.11,0.321-0.282,0.631-0.479,0.91c-1.303,1.841-2.622,3.669-3.929,5.508    c-1.18,1.659-2.381,3.303-3.516,4.994c-2.039,3.037-4.376,5.8-7.163,8.179c-1.679,1.433-3.074,3.121-4.353,4.914    c-0.489,0.687-1.054,1.322-1.611,1.958c-1.611,1.835-3.274,3.626-4.843,5.497c-1.587,1.893-3.087,3.859-4.623,5.796    c-0.876,1.104-1.747,2.209-2.777,3.228c0.291-0.59,0.555-1.195,0.879-1.768c0.613-1.089,1.285-2.143,1.886-3.239    c1.4-2.558,2.994-4.987,4.708-7.345c1.73-2.385,3.461-4.768,5.474-6.925c2.997-3.213,5.624-6.729,8.369-10.149    c1.465-1.826,2.822-3.736,4.267-5.579c0.772-0.981,1.632-1.895,2.439-2.849c0.463-0.546,0.858-1.156,1.36-1.66    c0.674-0.678,1.429-1.274,2.134-1.921C62.369,23.45,62.548,23.193,62.825,22.873z M59.182,18.401    c-0.107-0.134-0.136-0.348-0.156-0.529c-0.073-0.634-0.447-1.073-0.929-1.432c-0.457-0.341-0.947-0.447-1.481-0.136    c-0.318,0.184-0.66,0.327-1.021,0.503c-0.195-0.513-0.374-0.988-0.604-1.599c0.66,0.14,1.214-0.067,1.667,0.439    c0.135,0.148,0.521,0.128,0.778,0.092c1.035-0.148,2.396,0.201,3.187,0.863c0.545,0.458,1.083,0.925,1.632,1.394    c-0.074,0.66-0.494,1.068-0.911,1.488c-2.449,2.462-4.926,4.9-7.324,7.413c-0.791,0.828-1.348,1.877-2.062,2.786    c-1.643,2.09-3.317,4.155-4.979,6.231c-1.113,1.393-2.186,2.819-3.348,4.171c-1.734,2.015-3.53,3.976-5.3,5.959    c1.418-2.812,3.001-5.526,4.957-8.018c1.567-1.995,2.984-4.108,4.571-6.084c1.685-2.101,3.493-4.1,5.242-6.149    c0.793-0.928,1.619-1.833,2.344-2.814c0.952-1.289,2.256-1.899,3.86-2.207C59.326,19.981,59.808,19.193,59.182,18.401z     M49.642,23.798c0.773-1.284,1.682-2.456,2.853-3.416c0.071,0.068,0.142,0.135,0.214,0.204c-0.956,1.125-1.912,2.251-2.868,3.377    C49.773,23.907,49.707,23.853,49.642,23.798z M28.16,29.346c0.108-0.111,0.223-0.237,0.274-0.377    c0.491-1.37,1.588-2.177,2.687-3.01c0.351-0.266,0.643-0.694,0.8-1.111c0.282-0.741-0.014-1.213-1.019-1.798    c0.109-0.156,0.155-0.281,0.247-0.343c0.848-0.572,1.588-1.268,2.356-1.937c0.834-0.726,1.843-1.282,2.842-1.78    c1.614-0.801,3.395-1.234,4.954-2.175c0.15-0.09,0.339-0.119,0.646-0.222c-0.345,0.959-1.056,1.499-1.52,2.202    c-0.465,0.706-0.933,1.411-1.416,2.103c-0.5,0.719-1.021,1.423-1.604,2.229c-0.265-0.225-0.525-0.424-0.763-0.648    c-0.179-0.171-0.316-0.386-0.494-0.561c-0.806-0.786-1.477-0.587-1.923,0.435c-0.367,0.841-0.787,1.705-1.375,2.396    c-2.289,2.702-4.394,5.53-6.251,8.544c-0.096,0.154-0.229,0.285-0.399,0.398C26.587,32.12,26.98,30.56,28.16,29.346z     M23.754,37.764c-0.688,2.006-1.58,3.873-3.04,5.611c-0.114-0.973,0.16-1.675,0.589-2.318c0.329-0.493,0.729-0.938,1.083-1.415    C22.848,39.021,23.298,38.39,23.754,37.764z M20.994,33.95c0.299-0.204,0.561-0.46,0.86-0.711    c-0.068,0.605-0.711,1.581-1.477,2.215C20.265,34.759,20.479,34.3,20.994,33.95z M18.994,62c-0.221,0.211-0.461,0.399-0.759,0.655    c-0.609-0.808-1.043-1.623-1.08-2.577c-0.012-0.296,0.221-0.636,0.418-0.899c0.615-0.82,1.307-1.588,1.898-2.424    c0.764-1.076,1.562-2.102,2.658-2.867c0.224-0.154,0.422-0.386,0.553-0.624c0.741-1.341,1.494-2.677,2.17-4.052    c0.511-1.04,1.098-2.013,1.773-2.957c0.742-1.039,1.43-2.139,1.975-3.291c0.62-1.309,1.503-2.443,2.201-3.695    c1.271-2.282,2.979-4.238,4.572-6.287c1.188-1.525,2.164-3.22,3.222-4.846c0.966-1.49,1.92-2.986,2.873-4.483    c0.475-0.743,0.92-1.521,1.899-1.286c0.467-0.817,0.866-1.555,1.303-2.272c0.341-0.56,0.826-0.912,1.521-0.969    c0.208-0.017,0.509-0.183,0.582-0.358c0.347-0.835,0.52-1.701,0.165-2.591c-0.081-0.2-0.148-0.406-0.217-0.598    c0.394-0.628,1.043-0.495,1.553-0.531c1.477-0.103,2.962-0.091,4.502-0.127c-0.211,1.523-0.466,2.981,1.262,3.832    c-0.366,0.494-0.689,0.928-1.129,1.521c-0.109-0.689-0.167-1.166-0.263-1.635c-0.113-0.561-0.363-1.049-0.789-1.452    c-0.65-0.619-1.241-0.458-1.667,0.325c-0.58,1.069-1.254,2.089-1.917,3.11c-1.921,2.955-4.271,5.561-6.722,8.071    c-2.806,2.871-5.208,6.025-6.897,9.665c-1.021,2.198-2.141,4.32-3.558,6.283c-0.824,1.142-1.744,2.221-2.493,3.411    c-1.233,1.958-2.327,4.005-3.542,5.976C23.303,56.882,21.438,59.664,18.994,62z M22.723,69.834    c-0.372-0.101-0.55-0.377-0.341-0.812c0.174-0.361,0.336-0.768,0.615-1.036c1.027-0.98,1.557-2.247,2.181-3.475    c0.89-1.755,1.793-3.511,2.816-5.191c0.59-0.969,1.443-1.774,2.147-2.676c1.116-1.426,2.206-2.872,3.312-4.305    c0.117-0.154,0.267-0.285,0.401-0.427c0.039,0.028,0.079,0.056,0.119,0.084c-0.062,0.126-0.112,0.259-0.188,0.376    c-2.277,3.453-4.184,7.119-6.184,10.733c-0.925,1.668-2.023,3.24-3.026,4.866C24.114,68.721,23.662,69.465,22.723,69.834z     M26.828,77.621c-0.668,0.521-0.997,0.612-1.497,0.122c-0.019-0.018-0.013-0.061-0.022-0.105c0.202-0.343,0.504-0.474,0.915-0.51    c0.698-0.063,1.143-0.442,1.437-1.125c0.343-0.794,0.846-1.518,1.278-2.271c0.254-0.439,0.507-0.879,0.763-1.315    c1.17-2.001,2.619-3.794,4.135-5.538c1.395-1.606,2.775-3.226,4.139-4.857c1.501-1.799,2.941-3.648,4.475-5.417    c0.73-0.845,1.614-1.557,2.433-2.332c-0.038,0.6-0.444,1.062-0.791,1.542c-1.042,1.44-2.103,2.868-3.146,4.309    c-2.493,3.447-4.939,6.93-7.489,10.336c-1.101,1.472-2.304,2.903-3.657,4.139C28.749,75.556,27.953,76.741,26.828,77.621z     M37.144,83.857c-0.179-0.892-0.08-1.064,0.972-1.673c0.053,0.656,0.103,1.282,0.161,2.02    C37.813,84.062,37.475,83.959,37.144,83.857z M38.079,70.89c-0.859,0.772-1.532,1.535-1.835,2.658    c-0.133,0.498-0.475,0.94-0.722,1.407c-0.417,0.785-1.093,1.277-1.892,1.599c-1.332,0.538-2.073,1.647-2.731,2.818    c-0.154,0.274-0.097,0.667-0.139,1.041c-0.238,0.093-0.466,0.181-0.767,0.298c-0.084-0.253-0.276-0.521-0.21-0.686    c0.252-0.628,0.488-1.304,0.91-1.812c0.809-0.972,1.75-1.832,2.618-2.755c0.421-0.447,0.823-0.913,1.194-1.402    c0.979-1.283,1.938-2.579,2.896-3.878c0.706-0.956,1.395-1.925,2.098-2.882c0.681-0.928,1.301-1.914,2.081-2.747    c0.552-0.589,1.019-1.258,1.872-1.629c0.936-0.408,1.702-1.221,2.516-1.889c1.312-1.08,2.344-2.392,3.134-3.896    c0.1-0.19,0.236-0.368,0.384-0.526c0.952-1.021,1.478-2.307,2.198-3.472c0.784-1.269,1.486-2.626,2.469-3.728    c0.91-1.021,1.712-2.139,2.672-3.117c0.104-0.108,0.203-0.24,0.255-0.379c0.365-0.991,1.102-1.702,1.773-2.475    c0.568-0.654,1.029-1.403,1.567-2.086c1.083-1.372,2.18-2.731,3.279-4.088c0.968-1.192,1.979-2.35,2.917-3.564    c1.185-1.531,2.683-2.708,4.182-3.894c0.095-0.075,0.206-0.145,0.322-0.181c0.174-0.055,0.359-0.08,0.505-0.111    c0.391,0.326,0.19,0.611,0.008,0.854c-0.507,0.674-0.983,1.385-1.569,1.983c-1.471,1.496-2.976,2.957-4.502,4.396    c-1.271,1.196-2.239,2.621-3.147,4.08c-1.573,2.525-3.2,5.009-5.097,7.308c-1.033,1.252-2.067,2.506-3.058,3.792    c-0.872,1.134-1.604,2.382-2.543,3.453c-1.009,1.151-1.735,2.495-2.724,3.648c-0.977,1.139-1.988,2.248-3,3.357    c-1.345,1.479-2.704,2.944-4.062,4.412C40.662,68.178,39.469,69.643,38.079,70.89z M42.279,77.496    c-0.06-0.036-0.117-0.073-0.177-0.109c0.14-0.289,0.233-0.612,0.427-0.858c0.508-0.645,1.016-1.274,1.472-1.965    c0.401-0.608,0.886-1.195,1.238-1.839c0.791-1.448,2.015-2.543,2.981-3.844c0.912-1.227,1.799-2.472,2.7-3.706    c0.259-0.354,0.496-0.732,0.806-1.038c0.989-0.979,1.984-1.954,3.019-2.885c1.242-1.115,2.118-2.493,2.976-3.897    c0.466-0.764,0.997-1.489,1.489-2.236c0.718-1.088,1.393-2.205,2.147-3.265c0.612-0.859,1.322-1.646,1.977-2.473    c0.463-0.584,0.948-1.156,1.352-1.778c0.567-0.876,1.257-1.617,2.024-2.322c0.779-0.712,1.439-1.558,2.153-2.344    c0.947-1.041,1.881-2.094,2.849-3.115c0.491-0.518,1-1.041,1.584-1.443c0.57-0.393,0.89-0.93,0.963-1.532    c0.129-1.053,0.131-2.131-0.878-2.948c0.268-0.375,0.57-0.734,0.799-1.135c0.218-0.385,0.569-0.549,0.933-0.521    c1.47,0.111,2.097-0.821,2.566-1.978c0.08-0.196,0.15-0.397,0.242-0.586c0.02-0.04,0.112-0.043,0.213-0.078    c0.833,0.704,1.485,1.549,1.808,2.573c-0.307,0.757-0.855,1.146-1.536,1.525c-0.583,0.326-0.937,1.058-1.407,1.597    c-1.063,1.22-2.139,2.43-3.207,3.645c-0.507,0.579-0.93,1.267-1.531,1.72c-1.146,0.863-1.658,2.109-2.294,3.298    c-1.704,3.191-3.865,6.053-6.234,8.779c-1.411,1.622-2.701,3.349-4.08,5c-1.163,1.393-2.394,2.731-3.562,4.122    c-1.046,1.246-2.021,2.552-3.079,3.789c-1.241,1.452-2.546,2.848-3.804,4.284c-0.512,0.585-0.947,1.235-1.462,1.816    c-0.701,0.792-1.456,1.534-2.166,2.318c-0.584,0.646-1.218,1.271-1.676,2.001C43.479,76.745,42.873,77.089,42.279,77.496z     M48.562,84.109c-0.049,0.031-0.198-0.004-0.23-0.054c-0.157-0.254-0.069-0.442,0.242-0.592    C48.803,83.736,48.826,83.946,48.562,84.109z M50.126,77.947c-0.887,0.84-1.771,1.682-2.655,2.522    c-0.563,0.539-1.114,1.09-1.69,1.614c-0.601,0.544-1.323,0.537-2.19,0.398c0.076-0.238,0.092-0.404,0.175-0.524    c0.602-0.868,1.246-1.711,1.823-2.594c0.967-1.476,2.303-2.667,3.239-4.146c0.984-1.553,2.277-2.854,3.312-4.36    c0.455-0.659,1.077-1.204,1.62-1.806c1.432-1.589,2.886-3.161,4.284-4.779c0.633-0.73,1.146-1.562,1.731-2.337    c0.148-0.196,0.351-0.356,0.544-0.512c1.461-1.181,2.658-2.573,3.7-4.146c0.751-1.132,1.738-2.112,2.634-3.148    c0.917-1.06,1.891-2.072,2.764-3.166c0.479-0.598,0.802-1.321,1.193-1.987c0.284-0.484,0.512-1.014,0.863-1.443    c0.961-1.176,1.621-2.582,2.873-3.548c0.6-0.461,1.057-1.15,1.467-1.805c0.876-1.403,1.994-2.605,3.285-3.579    c0.785-0.591,1.352-1.291,1.915-2.041c0.505-0.673,1.035-0.633,1.378,0.116c0.167,0.36,0.276,0.746,0.405,1.101    c-0.875,0.586-1.721,1.062-2.451,1.672c-0.534,0.447-0.98,1.033-1.359,1.625c-1.033,1.617-2.082,3.216-3.293,4.709    c-0.884,1.089-1.667,2.259-2.548,3.35c-0.941,1.166-1.989,2.249-2.907,3.432c-1.056,1.359-1.969,2.829-3.037,4.177    c-1.556,1.964-3.182,3.871-4.8,5.783c-2.125,2.51-4.327,4.955-6.387,7.517c-1.111,1.381-2.027,2.926-2.973,4.434    C52.228,75.773,51.229,76.899,50.126,77.947z M55.923,83.101c-0.292,0.104-0.651,0.017-1.074,0.017    c0.269-0.566,0.447-1.043,0.949-1.378c0.346-0.229,0.564-0.647,0.852-0.971c0.237-0.266,0.491-0.514,0.825-0.861    c0.283,0.836,0.514,1.515,0.754,2.225C57.467,82.458,56.709,82.82,55.923,83.101z M60.069,70.223    c0.024-0.08,0.025-0.179,0.076-0.237c0.984-1.165,1.971-2.327,2.966-3.483c0.666-0.773,1.315-1.564,2.024-2.298    c2.433-2.518,4.318-5.478,6.594-8.123c1.047-1.218,1.94-2.543,3.164-3.637c0.761-0.682,1.711-1.318,2.059-2.402    c0.686-0.462,0.848-1.274,1.284-1.898c0.382-0.545,0.932-0.973,1.479-1.402c-0.057,0.806-0.463,1.451-0.905,2.047    c-0.653,0.877-1.379,1.701-2.08,2.541c-0.319,0.383-0.653,0.751-0.978,1.129c-1.111,1.294-2.222,2.587-3.326,3.886    c-0.091,0.109-0.125,0.269-0.191,0.399c-0.273,0.549-0.547,1.046-1.098,1.441c-0.587,0.421-0.996,1.097-1.46,1.68    c-0.656,0.824-1.234,1.716-1.95,2.483c-0.768,0.826-1.7,1.495-2.475,2.317c-0.777,0.824-1.424,1.771-2.17,2.627    c-0.549,0.63-0.988,1.379-1.803,1.754c-0.205,0.093-0.331,0.356-0.491,0.543c-0.203,0.24-0.404,0.482-0.606,0.725    C60.146,70.284,60.106,70.254,60.069,70.223z M78.691,65.692c-0.258,0.339-0.544,0.662-0.849,0.96    c-0.303,0.295-0.726,0.496-0.959,0.832c-0.669,0.973-1.642,1.664-2.348,2.576c-0.78,1.01-1.876,1.724-2.525,2.848    c-0.163,0.282-0.461,0.496-0.724,0.707c-1.012,0.814-2.021,1.635-3.062,2.411c-0.394,0.292-0.896,0.435-1.305,0.711    c-0.48,0.323-0.904,0.729-1.369,1.076c-0.374,0.279-0.77,0.529-1.16,0.784c-0.462,0.302-0.948,0.533-1.358,0.951    c-0.383,0.389-0.995,0.553-1.507,0.816c-0.06-0.061-0.118-0.119-0.178-0.18c0.146-0.246,0.247-0.542,0.45-0.729    c0.545-0.505,1.154-0.941,1.7-1.448c0.673-0.624,1.299-1.299,1.964-1.934c0.331-0.317,0.705-0.591,1.054-0.891    c0.556-0.476,1.136-0.928,1.652-1.443c0.897-0.896,1.768-1.795,2.883-2.458c1.128-0.67,2.087-1.543,2.904-2.631    c0.818-1.089,1.943-1.946,2.924-2.914c0.477-0.473,0.924-0.975,1.402-1.446c0.235-0.232,0.51-0.424,0.88-0.726    c0.194,0.469,0.312,0.75,0.363,0.875C79.203,64.93,78.969,65.326,78.691,65.692z M83.255,52.742    c-1.252,0.045-1.663,1.223-2.397,1.979c-0.82,0.846-1.479,1.85-2.228,2.77c-0.334,0.41-0.751,0.754-1.067,1.177    c-0.739,0.988-1.437,2.01-2.162,3.01c-0.179,0.244-0.409,0.451-0.61,0.682c-0.876,1.009-1.819,1.97-2.606,3.044    c-0.932,1.276-2.174,2.215-3.282,3.295c-0.91,0.891-2.013,1.582-2.957,2.441c-1.147,1.044-2.244,2.146-3.312,3.271    c-0.707,0.746-1.485,1.38-2.44,1.871c0.189-0.352,0.321-0.758,0.581-1.045c0.873-0.965,1.793-1.885,2.69-2.825    c0.446-0.466,0.876-0.947,1.332-1.402c0.278-0.275,0.6-0.51,0.894-0.771c0.114-0.102,0.23-0.214,0.306-0.346    c0.467-0.816,1.152-1.441,1.78-2.123c0.485-0.527,0.871-1.146,1.335-1.694c0.797-0.944,1.587-1.891,2.609-2.631    c0.534-0.389,0.917-0.992,1.349-1.516c1.106-1.34,2.238-2.662,3.292-4.043c0.828-1.086,1.557-2.248,2.327-3.378    c0.513-0.752,1.018-1.505,1.53-2.257c0.105-0.154,0.202-0.324,0.341-0.447c0.577-0.507,1.263-0.926,1.729-1.518    c0.462-0.583,0.876-1.178,1.654-1.65C83.995,50.093,83.636,51.375,83.255,52.742z"></path></g><g id="SvgjsG1385" featureKey="nameFeature-0" transform="matrix(3.6018009897955774,0,0,3.6018009897955774,131.6778369230255,166.49124844404082)" fill="#005792"><path d="M13.68 40 l0.2 -33 l-3.12 33 l-3.32 0 l-3.12 -33 l0.2 33 l-3.32 0 l0 -37.36 l6.24 0 l1.64 23.44 l1.68 -23.44 l6.24 0 l0 37.36 l-3.32 0 z M21.334999999999997 40 l1.96 -37.36 l5.64 0 l1.96 37.36 l-3.08 0 l-0.4 -7.8 l-0.56 0.8 q-1.04 1.44 -1.52 2.32 t-0.64 1.7 t-0.24 2.22 l-0.04 0.76 l-3.08 0 z M26.615 27.04 q0.36 -1 0.36 -2.84 l-0.88 -16.56 l-1.16 22.28 q1.32 -1.88 1.68 -2.88 z M44.949999999999996 5.960000000000001 l-3.12 0 l0 34.04 l-3.32 0 l0 -34.04 l-3.12 0 l0 -3.32 l9.56 0 l0 3.32 z"></path></g><g id="SvgjsG1386" featureKey="sloganFeature-0" transform="matrix(1.5453386318234537,0,0,1.5453386318234537,133.09476337954067,320.76985990792843)" fill="#005792"><path d="M2.04 20 c-0.1 0 -0.16 -0.08 -0.16 -0.18 l0 -12.84 c0 -0.1 0.06 -0.18 0.16 -0.18 l6.8 0 c0.1 0 0.18 0.08 0.18 0.18 l0 2.14 c0 0.1 -0.08 0.18 -0.18 0.18 l-4.32 0 l0 2.72 l3.36 0 c0.1 0 0.16 0.08 0.16 0.18 l0 2.18 c0 0.1 -0.06 0.18 -0.16 0.18 l-3.36 0 l0 2.94 l4.32 0 c0.1 0 0.18 0.08 0.18 0.18 l0 2.14 c0 0.1 -0.08 0.18 -0.18 0.18 l-6.8 0 z M3.04 8.06 l0 10.64 c0 0.12 0.08 0.16 0.16 0.16 l4.6 0 c0.18 0 0.14 -0.24 0 -0.24 l-4.5 0 l0 -5.22 l3.68 0 c0.12 0 0.12 -0.28 0 -0.28 l-3.68 0 l0 -4.96 l4.5 0 c0.14 0 0.18 -0.26 0 -0.26 l-4.6 0 c-0.08 0 -0.16 0.06 -0.16 0.16 z M14.899999999999999 6.92 c0.02 -0.06 0.06 -0.12 0.14 -0.12 l2.48 0 c0.08 0 0.12 0.06 0.14 0.12 l3.46 12.86 c0.02 0.12 -0.06 0.22 -0.18 0.22 l-2.28 0 c-0.06 0 -0.12 -0.04 -0.14 -0.12 l-0.78 -2.8 l-2.92 0 l-0.76 2.8 c-0.02 0.08 -0.06 0.12 -0.14 0.12 l-2.3 0 c-0.12 0 -0.2 -0.1 -0.18 -0.22 z M15.46 14.6 l1.66 0 l-0.86 -3.02 z M18.54 15.780000000000001 l0.92 3 c0.04 0.12 0.26 0.1 0.2 -0.06 l-3.2 -10.64 c-0.06 -0.26 -0.4 -0.28 -0.46 0 l-3.1 10.64 c-0.06 0.14 0.16 0.2 0.22 0.08 l0.88 -3.02 l4.54 0 z M14.059999999999999 15.52 l2.18 -7.36 l2.22 7.36 l-4.4 0 z M28.419999999999998 11.9 c1.52 0.72 3.5 1.86 3.5 3.92 c0 0.6 -0.1 1.76 -0.76 2.74 c-0.74 1.1 -1.9 1.64 -3.5 1.64 c-1.7 0 -3.68 -0.82 -4.3 -2.68 c-0.02 -0.06 0 -0.12 0.06 -0.16 l1.84 -1.58 c0.08 -0.06 0.2 -0.06 0.26 0.04 c0.04 0.1 0.12 0.26 0.22 0.46 c0.3 0.62 1.02 1.24 1.82 1.24 c0.62 0 1.46 -0.34 1.46 -1.3 c0 -0.92 -1.26 -1.44 -2.04 -1.74 c-0.9 -0.36 -1.82 -0.82 -2.6 -1.5 c-0.82 -0.76 -1.22 -1.6 -1.22 -2.6 c0 -2.5 2.3 -3.76 4.48 -3.76 c1.72 0 3 0.9 3.84 2.68 c0.04 0.08 0 0.18 -0.06 0.22 l-1.78 1.24 c-0.08 0.04 -0.12 0.04 -0.2 -0.06 c-0.68 -0.98 -1.28 -1.44 -2.08 -1.44 c-0.42 0 -1.4 0.16 -1.4 0.9 c0 0.9 1.66 1.36 2.46 1.74 z M24.78 17.42 c0.5 1 1.88 1.58 3 1.58 c1.46 0 2.64 -1 2.8 -2.52 c0.2 -1.86 -1.26 -2.66 -2.7 -3.38 l-0.64 -0.28 c-1.48 -0.66 -2.56 -1.16 -2.56 -2.54 c0 -1.52 1.4 -2.22 2.78 -2.22 c1.26 0 1.92 0.74 2.26 1.2 c0.12 0.16 0.32 0.02 0.2 -0.14 c-0.34 -0.42 -1.06 -1.3 -2.46 -1.3 c-1.58 0 -3.02 0.78 -3.02 2.46 c0 1.5 1.2 2.08 2.72 2.78 l0.62 0.3 c1.98 0.94 2.7 1.82 2.54 3.1 c-0.3 2.04 -1.86 2.3 -2.54 2.3 c-1.5 0 -2.5 -0.9 -2.8 -1.46 c-0.1 -0.1 -0.24 0 -0.2 0.12 z M36.42 6.9 l1.74 3.36 l1.7 -3.36 c0.06 -0.1 0.08 -0.1 0.16 -0.1 l2.24 0 c0.12 0 0.2 0.12 0.16 0.22 l-2.9 6.74 l0 6.06 c0 0.1 -0.08 0.18 -0.18 0.18 l-2.36 0 c-0.06 0 -0.14 -0.08 -0.14 -0.18 l0 -6.06 l-2.98 -6.7 c-0.04 -0.14 0.02 -0.26 0.16 -0.26 l2.24 0 c0.08 0 0.1 0 0.16 0.1 z M38.26 13.3 l2.5 -5.2 c0.06 -0.12 -0.14 -0.22 -0.22 -0.08 l-2.38 4.98 l-2.44 -4.98 c-0.08 -0.14 -0.3 -0.04 -0.24 0.1 l2.56 5.18 l0 5.52 c0 0.14 0.22 0.16 0.22 0 l0 -5.52 z M56.919999999999995 6.800000000000001 c2.22 0 3.56 1.26 3.56 3.6 l0 2.52 c0 2.14 -1.32 3.58 -3.56 3.58 l-1.68 0 l0 3.32 c0 0.1 -0.08 0.18 -0.18 0.18 l-2.3 0 c-0.08 0 -0.14 -0.08 -0.14 -0.18 l0 -12.84 c0 -0.1 0.06 -0.18 0.14 -0.18 l4.16 0 z M57.85999999999999 12.32 l0 -1.32 c0 -1.38 -0.64 -1.52 -2.04 -1.52 l-0.58 0 l0 4.4 l0.58 0 c1.1 0 2.04 -0.2 2.04 -1.56 z M59.279999999999994 12.780000000000001 l0 -2.5 c0 -2.2 -1.7 -2.38 -2.62 -2.38 l-2.7 0 c-0.04 0 -0.12 0.06 -0.12 0.12 l0 10.76 c0 0.14 0.24 0.14 0.24 0 l0 -3.4 l2.4 0 c1.76 0 2.8 -0.62 2.8 -2.6 z M54.08 8.16 l2.58 0 c2.22 0 2.36 1.46 2.36 2.12 l0 2.5 c0 2.04 -1.28 2.32 -2.54 2.32 l-2.4 0 l0 -6.94 z M63.459999999999994 20 c-0.1 0 -0.16 -0.08 -0.16 -0.18 l0 -12.84 c0 -0.1 0.06 -0.18 0.16 -0.18 l6.8 0 c0.1 0 0.18 0.08 0.18 0.18 l0 2.14 c0 0.1 -0.08 0.18 -0.18 0.18 l-4.32 0 l0 2.72 l3.36 0 c0.1 0 0.16 0.08 0.16 0.18 l0 2.18 c0 0.1 -0.06 0.18 -0.16 0.18 l-3.36 0 l0 2.94 l4.32 0 c0.1 0 0.18 0.08 0.18 0.18 l0 2.14 c0 0.1 -0.08 0.18 -0.18 0.18 l-6.8 0 z M64.46 8.06 l0 10.64 c0 0.12 0.08 0.16 0.16 0.16 l4.6 0 c0.18 0 0.14 -0.24 0 -0.24 l-4.5 0 l0 -5.22 l3.68 0 c0.12 0 0.12 -0.28 0 -0.28 l-3.68 0 l0 -4.96 l4.5 0 c0.14 0 0.18 -0.26 0 -0.26 l-4.6 0 c-0.08 0 -0.16 0.06 -0.16 0.16 z M76.32 6.92 c0.02 -0.06 0.06 -0.12 0.14 -0.12 l2.48 0 c0.08 0 0.12 0.06 0.14 0.12 l3.46 12.86 c0.02 0.12 -0.06 0.22 -0.18 0.22 l-2.28 0 c-0.06 0 -0.12 -0.04 -0.14 -0.12 l-0.78 -2.8 l-2.92 0 l-0.76 2.8 c-0.02 0.08 -0.06 0.12 -0.14 0.12 l-2.3 0 c-0.12 0 -0.2 -0.1 -0.18 -0.22 z M76.88 14.6 l1.66 0 l-0.86 -3.02 z M79.96 15.780000000000001 l0.92 3 c0.04 0.12 0.26 0.1 0.2 -0.06 l-3.2 -10.64 c-0.06 -0.26 -0.4 -0.28 -0.46 0 l-3.1 10.64 c-0.06 0.14 0.16 0.2 0.22 0.08 l0.88 -3.02 l4.54 0 z M75.48 15.52 l2.18 -7.36 l2.22 7.36 l-4.4 0 z M89.83999999999999 11.9 c1.52 0.72 3.5 1.86 3.5 3.92 c0 0.6 -0.1 1.76 -0.76 2.74 c-0.74 1.1 -1.9 1.64 -3.5 1.64 c-1.7 0 -3.68 -0.82 -4.3 -2.68 c-0.02 -0.06 0 -0.12 0.06 -0.16 l1.84 -1.58 c0.08 -0.06 0.2 -0.06 0.26 0.04 c0.04 0.1 0.12 0.26 0.22 0.46 c0.3 0.62 1.02 1.24 1.82 1.24 c0.62 0 1.46 -0.34 1.46 -1.3 c0 -0.92 -1.26 -1.44 -2.04 -1.74 c-0.9 -0.36 -1.82 -0.82 -2.6 -1.5 c-0.82 -0.76 -1.22 -1.6 -1.22 -2.6 c0 -2.5 2.3 -3.76 4.48 -3.76 c1.72 0 3 0.9 3.84 2.68 c0.04 0.08 0 0.18 -0.06 0.22 l-1.78 1.24 c-0.08 0.04 -0.12 0.04 -0.2 -0.06 c-0.68 -0.98 -1.28 -1.44 -2.08 -1.44 c-0.42 0 -1.4 0.16 -1.4 0.9 c0 0.9 1.66 1.36 2.46 1.74 z M86.19999999999999 17.42 c0.5 1 1.88 1.58 3 1.58 c1.46 0 2.64 -1 2.8 -2.52 c0.2 -1.86 -1.26 -2.66 -2.7 -3.38 l-0.64 -0.28 c-1.48 -0.66 -2.56 -1.16 -2.56 -2.54 c0 -1.52 1.4 -2.22 2.78 -2.22 c1.26 0 1.92 0.74 2.26 1.2 c0.12 0.16 0.32 0.02 0.2 -0.14 c-0.34 -0.42 -1.06 -1.3 -2.46 -1.3 c-1.58 0 -3.02 0.78 -3.02 2.46 c0 1.5 1.2 2.08 2.72 2.78 l0.62 0.3 c1.98 0.94 2.7 1.82 2.54 3.1 c-0.3 2.04 -1.86 2.3 -2.54 2.3 c-1.5 0 -2.5 -0.9 -2.8 -1.46 c-0.1 -0.1 -0.24 0 -0.2 0.12 z M97.83999999999999 6.9 l1.74 3.36 l1.7 -3.36 c0.06 -0.1 0.08 -0.1 0.16 -0.1 l2.24 0 c0.12 0 0.2 0.12 0.16 0.22 l-2.9 6.74 l0 6.06 c0 0.1 -0.08 0.18 -0.18 0.18 l-2.36 0 c-0.06 0 -0.14 -0.08 -0.14 -0.18 l0 -6.06 l-2.98 -6.7 c-0.04 -0.14 0.02 -0.26 0.16 -0.26 l2.24 0 c0.08 0 0.1 0 0.16 0.1 z M99.67999999999999 13.3 l2.5 -5.2 c0.06 -0.12 -0.14 -0.22 -0.22 -0.08 l-2.38 4.98 l-2.44 -4.98 c-0.08 -0.14 -0.3 -0.04 -0.24 0.1 l2.56 5.18 l0 5.52 c0 0.14 0.22 0.16 0.22 0 l0 -5.52 z"></path></g>
			</g>
		</svg>
	